<svg width="406" height="410" viewBox="0 0 406 410" fill="none" xmlns="http://www.w3.org/2000/svg">
<path d="M0 409.47V126.876C0 56.8047 56.8038 0.000976562 126.875 0.000976562C196.946 0.000976562 253.75 56.8048 253.75 126.876V247.606C253.75 261.62 265.111 272.981 279.125 272.981C293.139 272.981 304.5 261.62 304.5 247.606V101.501C304.5 45.4441 349.943 0.000976562 406 0.000976562V146.106C406 216.177 349.196 272.981 279.125 272.981C209.054 272.981 152.25 216.177 152.25 146.106V25.376C152.25 11.3618 140.889 0.000976562 126.875 0.000976562C112.861 0.000976562 101.5 11.3617 101.5 25.376V307.97C101.5 364.027 56.0569 409.47 0 409.47Z" fill="white"/>
<path d="M152.25 318.476C152.25 368.73 192.989 409.469 243.243 409.469L406 409.469C406 359.215 365.261 318.476 315.007 318.476L152.25 318.476Z" fill="white"/>
</svg>
